<svg width="51" height="51" viewBox="0 0 51 51" fill="none" xmlns="http://www.w3.org/2000/svg">
<circle cx="25.5" cy="25.5" r="24" fill="#8ECAE6" stroke="white" stroke-width="3"/>
<path d="M25.5 13C22.0625 13 19.25 16.5 19.25 20.8125C19.25 25.125 22.0625 28.625 25.5 28.625C28.9375 28.625 31.75 25.125 31.75 20.8125C31.75 16.5 28.9375 13 25.5 13ZM18.9688 28.625C15.6562 28.7812 13 31.5 13 34.875V38H38V34.875C38 31.5 35.375 28.7812 32.0312 28.625C30.3438 30.5312 28.0312 31.75 25.5 31.75C22.9688 31.75 20.6562 30.5312 18.9688 28.625Z" fill="white"/>
</svg>
